<svg width="131" height="134" viewBox="0 0 131 134" fill="none" xmlns="http://www.w3.org/2000/svg">
<path d="M0 133.65V0H29.04C38.94 0 46.75 1.54 52.47 4.62C58.3 7.59 62.425 12.1 64.845 18.15C67.375 24.2 68.64 31.735 68.64 40.755V89.925C68.64 99.385 67.375 107.36 64.845 113.85C62.425 120.34 58.41 125.29 52.8 128.7C47.3 132 39.875 133.65 30.525 133.65H0ZM18.645 120.285H29.205C36.025 120.285 40.865 118.965 43.725 116.325C46.585 113.685 48.29 109.835 48.84 104.775C49.5 99.715 49.83 93.61 49.83 86.46V43.065C49.83 36.135 49.39 30.525 48.51 26.235C47.63 21.945 45.705 18.81 42.735 16.83C39.765 14.85 35.09 13.86 28.71 13.86H18.645V120.285Z" fill="#f8006d"/>
<path fill-rule="evenodd" clip-rule="evenodd" d="M59.395 130.131L59.395 134H78.04V86.81L86.62 71.3L112.195 134H130.345L99.655 59.255L126.055 0.349991H108.73L78.04 63.38V0.349991H59.395L59.395 3.04088C63.9096 6.39559 67.2927 10.8245 69.4727 16.2564C72.3246 23.0936 73.64 31.3216 73.64 40.755V89.925C73.64 99.7825 72.3283 108.403 69.5168 115.632C67.3252 121.493 63.9477 126.363 59.395 130.131ZM59.395 123.172L59.395 9.65709C61.7143 12.034 63.531 14.865 64.845 18.15C67.375 24.2 68.64 31.735 68.64 40.755V89.925C68.64 99.385 67.375 107.36 64.845 113.85C63.5122 117.424 61.6955 120.532 59.395 123.172Z" fill="#f8006d"/>
</svg>
